<svg width="8" height="8" viewBox="0 0 8 8" fill="none" xmlns="http://www.w3.org/2000/svg">
<path d="M7.28388 0.129314L4.00042 3.41313L0.716952 0.129314C0.63798 0.0570394 0.53417 0.0180241 0.42715 0.0203957C0.320129 0.0227672 0.218149 0.0663428 0.142456 0.142045C0.066762 0.217746 0.0231911 0.319737 0.0208198 0.426769C0.0184485 0.533801 0.0574596 0.637621 0.129726 0.716602L3.41153 4.00042L0.128893 7.2834C0.0887892 7.32162 0.0567302 7.36748 0.0346007 7.41827C0.0124713 7.46906 0.000717939 7.52377 3.18754e-05 7.57917C-0.000654188 7.63457 0.00974083 7.68955 0.0306057 7.74087C0.0514706 7.7922 0.0823842 7.83884 0.12153 7.87804C0.160675 7.91725 0.207262 7.94823 0.258552 7.96917C0.309843 7.99011 0.364801 8.00058 0.420197 7.99998C0.475593 7.99937 0.530309 7.98769 0.581127 7.96563C0.631946 7.94357 0.677843 7.91157 0.716119 7.87152L4.00042 4.58854L7.28388 7.87235C7.36285 7.94463 7.46666 7.98364 7.57368 7.98127C7.68071 7.9789 7.78268 7.93532 7.85838 7.85962C7.93407 7.78392 7.97764 7.68193 7.98001 7.5749C7.98239 7.46787 7.94337 7.36404 7.87111 7.28506L4.58764 4.00125L7.87111 0.716602C7.91121 0.678378 7.94327 0.632522 7.9654 0.58173C7.98753 0.530937 7.99928 0.476232 7.99997 0.420831C8.00065 0.36543 7.99026 0.310451 7.96939 0.259126C7.94853 0.2078 7.91762 0.161164 7.87847 0.121959C7.83933 0.082754 7.79274 0.0517709 7.74145 0.0308311C7.69016 0.00989126 7.6352 -0.00058261 7.5798 2.49996e-05C7.52441 0.000632609 7.46969 0.0123095 7.41887 0.0343693C7.36805 0.0564291 7.32216 0.0892595 7.28388 0.129314Z" fill="black"/>
</svg>
