<svg width="229" height="50" viewBox="0 0 229 50" fill="none" xmlns="http://www.w3.org/2000/svg">
<path d="M22.892 17H19.8977C19.7206 16.1387 19.4107 15.3821 18.968 14.7301C18.5334 14.0781 18.0021 13.5308 17.3743 13.0881C16.7545 12.6373 16.0663 12.2992 15.3097 12.0739C14.553 11.8485 13.7642 11.7358 12.9432 11.7358C11.446 11.7358 10.0897 12.1141 8.87429 12.8707C7.6669 13.6274 6.70502 14.7422 5.98864 16.2152C5.2803 17.6882 4.92614 19.4953 4.92614 21.6364C4.92614 23.7775 5.2803 25.5845 5.98864 27.0575C6.70502 28.5305 7.6669 29.6454 8.87429 30.402C10.0897 31.1586 11.446 31.5369 12.9432 31.5369C13.7642 31.5369 14.553 31.4242 15.3097 31.1989C16.0663 30.9735 16.7545 30.6394 17.3743 30.1967C18.0021 29.746 18.5334 29.1946 18.968 28.5426C19.4107 27.8826 19.7206 27.1259 19.8977 26.2727H22.892C22.6667 27.5365 22.2562 28.6674 21.6605 29.6655C21.0649 30.6636 20.3243 31.5128 19.4389 32.2131C18.5535 32.9053 17.5594 33.4325 16.4567 33.7947C15.362 34.157 14.1908 34.3381 12.9432 34.3381C10.8343 34.3381 8.95881 33.8229 7.31676 32.7926C5.67472 31.7623 4.38281 30.2973 3.44105 28.3977C2.49929 26.4981 2.02841 24.2443 2.02841 21.6364C2.02841 19.0284 2.49929 16.7746 3.44105 14.875C4.38281 12.9754 5.67472 11.5104 7.31676 10.4801C8.95881 9.44981 10.8343 8.93466 12.9432 8.93466C14.1908 8.93466 15.362 9.11577 16.4567 9.47798C17.5594 9.8402 18.5535 10.3714 19.4389 11.0717C20.3243 11.764 21.0649 12.6091 21.6605 13.6072C22.2562 14.5973 22.6667 15.7282 22.892 17ZM32.8017 34.4347C31.6265 34.4347 30.56 34.2133 29.6021 33.7706C28.6442 33.3198 27.8836 32.6719 27.3201 31.8267C26.7567 30.9735 26.475 29.9432 26.475 28.7358C26.475 27.6733 26.6842 26.812 27.1028 26.152C27.5214 25.4839 28.0808 24.9607 28.7811 24.5824C29.4814 24.2041 30.2541 23.9223 31.0993 23.7372C31.9525 23.544 32.8097 23.3911 33.671 23.2784C34.7979 23.1335 35.7115 23.0249 36.4118 22.9524C37.1201 22.8719 37.6352 22.7391 37.9572 22.554C38.2872 22.3688 38.4522 22.0469 38.4522 21.5881V21.4915C38.4522 20.3002 38.1262 19.3745 37.4743 18.7145C36.8303 18.0545 35.8523 17.7244 34.5403 17.7244C33.18 17.7244 32.1135 18.0223 31.3407 18.6179C30.568 19.2135 30.0247 19.8494 29.7108 20.5256L27.0062 19.5597C27.4892 18.4328 28.1331 17.5554 28.938 16.9276C29.751 16.2917 30.6364 15.849 31.5943 15.5994C32.5602 15.3419 33.51 15.2131 34.4437 15.2131C35.0394 15.2131 35.7235 15.2855 36.4963 15.4304C37.277 15.5672 38.0297 15.853 38.7541 16.2876C39.4866 16.7223 40.0943 17.3783 40.5772 18.2557C41.0602 19.133 41.3017 20.3082 41.3017 21.7812V34H38.4522V31.4886H38.3074C38.1142 31.8911 37.7922 32.3217 37.3414 32.7805C36.8907 33.2393 36.291 33.6297 35.5424 33.9517C34.7939 34.2737 33.8803 34.4347 32.8017 34.4347ZM33.2363 31.875C34.3632 31.875 35.313 31.6536 36.0858 31.2109C36.8665 30.7682 37.4541 30.1967 37.8485 29.4964C38.251 28.7962 38.4522 28.0597 38.4522 27.2869V24.679C38.3315 24.8239 38.0659 24.9567 37.6554 25.0774C37.2529 25.1901 36.786 25.2907 36.2548 25.3793C35.7316 25.4598 35.2205 25.5322 34.7214 25.5966C34.2304 25.6529 33.832 25.7012 33.5261 25.7415C32.7856 25.8381 32.0933 25.995 31.4494 26.2124C30.8135 26.4216 30.2984 26.7396 29.9039 27.1662C29.5176 27.5848 29.3244 28.1562 29.3244 28.8807C29.3244 29.8707 29.6906 30.6193 30.4231 31.1264C31.1636 31.6255 32.1014 31.875 33.2363 31.875ZM49.3519 22.8438V34H46.5025V15.4545H49.2553V18.3523H49.4968C49.9315 17.4105 50.5915 16.6539 51.4769 16.0824C52.3623 15.5028 53.5053 15.2131 54.9059 15.2131C56.1616 15.2131 57.2603 15.4706 58.2021 15.9858C59.1438 16.4929 59.8763 17.2656 60.3995 18.304C60.9227 19.3343 61.1843 20.6383 61.1843 22.2159V34H58.3349V22.4091C58.3349 20.9522 57.9566 19.8172 57.1999 19.0043C56.4433 18.1832 55.4049 17.7727 54.0849 17.7727C53.1753 17.7727 52.3623 17.9699 51.646 18.3643C50.9376 18.7588 50.3782 19.3343 49.9677 20.0909C49.5572 20.8475 49.3519 21.7652 49.3519 22.8438ZM68.9025 9.27273V11.446C68.9025 12.1061 68.7818 12.8104 68.5403 13.5589C68.3069 14.2995 67.9608 15.0199 67.502 15.7202C67.0512 16.4124 66.5038 17.0161 65.8599 17.5312L64.3145 16.2756C64.8216 15.5511 65.2602 14.7985 65.6305 14.0178C66.0088 13.2289 66.198 12.3878 66.198 11.4943V9.27273H68.9025ZM81.2299 15.4545V17.8693H71.6191V15.4545H81.2299ZM74.4203 11.0114H77.2697V28.6875C77.2697 29.4924 77.3864 30.0961 77.6199 30.4986C77.8613 30.893 78.1672 31.1586 78.5375 31.2955C78.9158 31.4242 79.3142 31.4886 79.7328 31.4886C80.0467 31.4886 80.3043 31.4725 80.5055 31.4403C80.7067 31.4001 80.8677 31.3679 80.9885 31.3438L81.568 33.9034C81.3748 33.9759 81.1052 34.0483 80.7591 34.1207C80.4129 34.2012 79.9743 34.2415 79.443 34.2415C78.6381 34.2415 77.8493 34.0684 77.0765 33.7223C76.3118 33.3762 75.676 32.849 75.1689 32.1406C74.6698 31.4323 74.4203 30.5388 74.4203 29.4602V11.0114ZM95.465 34V9.27273H98.4593V20.2841H111.644V9.27273H114.638V34H111.644V22.9403H98.4593V34H95.465ZM125.704 34.4347C124.529 34.4347 123.462 34.2133 122.504 33.7706C121.547 33.3198 120.786 32.6719 120.222 31.8267C119.659 30.9735 119.377 29.9432 119.377 28.7358C119.377 27.6733 119.587 26.812 120.005 26.152C120.424 25.4839 120.983 24.9607 121.683 24.5824C122.384 24.2041 123.156 23.9223 124.002 23.7372C124.855 23.544 125.712 23.3911 126.573 23.2784C127.7 23.1335 128.614 23.0249 129.314 22.9524C130.022 22.8719 130.538 22.7391 130.86 22.554C131.19 22.3688 131.355 22.0469 131.355 21.5881V21.4915C131.355 20.3002 131.029 19.3745 130.377 18.7145C129.733 18.0545 128.755 17.7244 127.443 17.7244C126.082 17.7244 125.016 18.0223 124.243 18.6179C123.47 19.2135 122.927 19.8494 122.613 20.5256L119.909 19.5597C120.392 18.4328 121.035 17.5554 121.84 16.9276C122.653 16.2917 123.539 15.849 124.497 15.5994C125.463 15.3419 126.412 15.2131 127.346 15.2131C127.942 15.2131 128.626 15.2855 129.399 15.4304C130.179 15.5672 130.932 15.853 131.656 16.2876C132.389 16.7223 132.997 17.3783 133.48 18.2557C133.963 19.133 134.204 20.3082 134.204 21.7812V34H131.355V31.4886H131.21C131.017 31.8911 130.695 32.3217 130.244 32.7805C129.793 33.2393 129.193 33.6297 128.445 33.9517C127.696 34.2737 126.783 34.4347 125.704 34.4347ZM126.139 31.875C127.266 31.875 128.215 31.6536 128.988 31.2109C129.769 30.7682 130.356 30.1967 130.751 29.4964C131.153 28.7962 131.355 28.0597 131.355 27.2869V24.679C131.234 24.8239 130.968 24.9567 130.558 25.0774C130.155 25.1901 129.688 25.2907 129.157 25.3793C128.634 25.4598 128.123 25.5322 127.624 25.5966C127.133 25.6529 126.734 25.7012 126.428 25.7415C125.688 25.8381 124.996 25.995 124.352 26.2124C123.716 26.4216 123.201 26.7396 122.806 27.1662C122.42 27.5848 122.227 28.1562 122.227 28.8807C122.227 29.8707 122.593 30.6193 123.325 31.1264C124.066 31.6255 125.004 31.875 126.139 31.875ZM153.906 15.4545L147.048 34H144.15L137.292 15.4545H140.383L145.502 30.233H145.695L150.815 15.4545H153.906ZM164.778 34.3864C162.991 34.3864 161.45 33.992 160.154 33.2031C158.866 32.4062 157.872 31.2955 157.172 29.8707C156.479 28.438 156.133 26.7718 156.133 24.8722C156.133 22.9725 156.479 21.2983 157.172 19.8494C157.872 18.3925 158.846 17.2576 160.093 16.4446C161.349 15.6236 162.814 15.2131 164.488 15.2131C165.454 15.2131 166.408 15.3741 167.35 15.696C168.292 16.018 169.149 16.5412 169.922 17.2656C170.694 17.982 171.31 18.9318 171.769 20.1151C172.228 21.2983 172.457 22.7552 172.457 24.4858V25.6932H158.162V23.2301H169.559C169.559 22.1837 169.35 21.25 168.931 20.429C168.521 19.608 167.933 18.96 167.169 18.4851C166.412 18.0102 165.519 17.7727 164.488 17.7727C163.353 17.7727 162.371 18.0545 161.542 18.6179C160.721 19.1733 160.089 19.8977 159.647 20.7912C159.204 21.6847 158.983 22.6425 158.983 23.6648V25.3068C158.983 26.7074 159.224 27.8946 159.707 28.8686C160.198 29.8345 160.878 30.571 161.748 31.0781C162.617 31.5772 163.627 31.8267 164.778 31.8267C165.527 31.8267 166.203 31.7221 166.806 31.5128C167.418 31.2955 167.945 30.9735 168.388 30.5469C168.831 30.1122 169.173 29.5729 169.414 28.929L172.167 29.7017C171.877 30.6354 171.391 31.4564 170.706 32.1648C170.022 32.8651 169.177 33.4124 168.171 33.8068C167.165 34.1932 166.034 34.3864 164.778 34.3864Z" fill="white"/>
<g filter="url(#filter0_d_40_2496)">
<rect x="186" y="4" width="36" height="36" rx="2" fill="#F9855A" fill-opacity="0.12" shape-rendering="crispEdges"/>
<rect x="186.5" y="4.5" width="35" height="35" rx="1.5" stroke="white" shape-rendering="crispEdges"/>
</g>
<path d="M198.989 9.27273V34H195.994V9.27273H198.989ZM212.671 15.4545V17.8693H203.061V15.4545H212.671ZM205.862 11.0114H208.711V28.6875C208.711 29.4924 208.828 30.0961 209.061 30.4986C209.303 30.893 209.609 31.1586 209.979 31.2955C210.357 31.4242 210.756 31.4886 211.174 31.4886C211.488 31.4886 211.746 31.4725 211.947 31.4403C212.148 31.4001 212.309 31.3679 212.43 31.3438L213.009 33.9034C212.816 33.9759 212.547 34.0483 212.2 34.1207C211.854 34.2012 211.416 34.2415 210.884 34.2415C210.079 34.2415 209.291 34.0684 208.518 33.7223C207.753 33.3762 207.117 32.849 206.61 32.1406C206.111 31.4323 205.862 30.5388 205.862 29.4602V11.0114Z" fill="white"/>
<defs>
<filter id="filter0_d_40_2496" x="179" y="0" width="50" height="50" filterUnits="userSpaceOnUse" color-interpolation-filters="sRGB">
<feFlood flood-opacity="0" result="BackgroundImageFix"/>
<feColorMatrix in="SourceAlpha" type="matrix" values="0 0 0 0 0 0 0 0 0 0 0 0 0 0 0 0 0 0 127 0" result="hardAlpha"/>
<feOffset dy="3"/>
<feGaussianBlur stdDeviation="3.5"/>
<feComposite in2="hardAlpha" operator="out"/>
<feColorMatrix type="matrix" values="0 0 0 0 0 0 0 0 0 0 0 0 0 0 0 0 0 0 0.25 0"/>
<feBlend mode="normal" in2="BackgroundImageFix" result="effect1_dropShadow_40_2496"/>
<feBlend mode="normal" in="SourceGraphic" in2="effect1_dropShadow_40_2496" result="shape"/>
</filter>
</defs>
</svg>
