<svg width="63" height="63" viewBox="0 0 63 63" fill="none" xmlns="http://www.w3.org/2000/svg">
<path d="M41.3491 16.1922C41.573 15.95 41.948 15.9344 42.1902 16.1584C42.4324 16.3823 42.448 16.7573 42.2241 16.9995L37.3491 22.2756L37.3413 22.286C36.7449 23.0073 36.3361 23.674 36.1538 24.2834C35.9923 24.8224 36.0157 25.312 36.2553 25.7391C36.3829 25.9683 36.3413 26.2495 36.172 26.4344L33.8569 28.9396C33.6303 28.6922 33.4506 28.4917 33.3308 28.3615C33.2762 28.2886 33.2137 28.2183 33.1486 28.1506L33.1433 28.1558C33.1121 28.1219 33.0782 28.0907 33.0444 28.0594L35.0236 25.9162C34.7918 25.2964 34.7944 24.6375 35.0079 23.937C35.2371 23.1766 35.7241 22.3667 36.4246 21.523C36.4402 21.5021 36.4532 21.4813 36.4715 21.4631L41.3439 16.187L41.3491 16.1922ZM30.8777 30.325C30.659 30.0802 30.6798 29.7026 30.9246 29.4839C31.1694 29.2651 31.547 29.286 31.7657 29.5308C34.2163 32.2756 41.7918 40.398 43.8907 43.4344C46.659 47.3537 42.3725 48.5881 40.9506 47.161C37.3986 43.7261 29.8569 34.9683 26.5418 31.2547C25.3491 31.7599 24.1902 31.8381 23.0262 31.5047C21.7736 31.148 20.547 30.312 19.3022 29.0282L19.2866 29.0125C18.3387 28.0125 17.5965 27.0256 17.06 26.049C16.5105 25.0438 16.1746 24.049 16.0548 23.062C15.9272 21.9995 16.0262 21.0099 16.3126 20.1323C16.6486 19.1011 17.2449 18.2287 18.0262 17.5802C18.8126 16.9292 19.7788 16.5073 20.8569 16.3771C21.7527 16.2703 22.7293 16.3615 23.7397 16.6922C25.1381 17.148 26.7683 18.2808 28.1199 19.7339C29.1173 20.8042 29.9715 22.0568 30.4793 23.3459C31.0079 24.6896 31.1694 26.0802 30.7449 27.3823C30.4949 28.1532 30.0418 28.8771 29.3387 29.5308C29.0965 29.7547 28.7215 29.7391 28.4975 29.4995C28.2736 29.2573 28.2892 28.8823 28.5288 28.6584C29.073 28.1506 29.422 27.5959 29.6121 27.0099C29.9402 26.0021 29.8022 24.8849 29.3699 23.786C28.9168 22.6349 28.1486 21.5099 27.2475 20.5438C26.0288 19.2365 24.5835 18.2235 23.3647 17.825C22.5288 17.5542 21.7293 17.4761 20.9975 17.5646C20.1486 17.6688 19.3881 17.9943 18.7814 18.5021C18.172 19.0099 17.7058 19.6948 17.4376 20.5099C17.2058 21.2209 17.1251 22.0386 17.2319 22.9214C17.3335 23.7547 17.6225 24.6063 18.0965 25.4761C18.5939 26.3693 19.2762 27.273 20.1538 28.1974L20.159 28.2052C21.2579 29.3381 22.3126 30.0672 23.3569 30.3641C24.3439 30.6453 25.3491 30.536 26.3986 30.0125C26.6381 29.8745 26.948 29.9214 27.1381 30.1349C30.3725 33.7573 38.2397 42.8745 41.7241 46.2521C43.2371 46.8693 44.0756 46.1089 43.3517 44.7677C42.2241 42.674 32.5366 32.1896 30.8777 30.325ZM27.7371 35.562L20.1433 43.7782C20.1277 43.7938 20.1147 43.8094 20.0965 43.825C18.9871 45.023 20.9506 46.7677 22.1694 45.6011L29.5444 37.6193L30.3361 38.5177L23.0183 46.437C23.0027 46.4552 22.9871 46.4709 22.9663 46.4891C22.5288 46.8563 22.0887 47.0959 21.6433 47.1948C21.185 47.299 20.7345 47.2521 20.3022 47.049C20.2293 47.0203 20.1616 46.9839 20.1017 46.9292L19.0522 45.9578C19.0366 45.9422 19.021 45.9292 19.0053 45.911C18.5991 45.4422 18.4064 44.9422 18.4585 44.4136C18.5079 43.9136 18.7736 43.4266 19.2762 42.9578L26.9428 34.661L27.7371 35.562ZM35.6954 30.9631L36.146 30.4761C36.3699 30.2339 36.7475 30.2183 36.9871 30.4422C37.2267 30.6662 37.2449 31.0412 37.021 31.2834L36.5001 31.8459L35.6954 30.9631ZM43.2006 17.9344C43.4246 17.6922 43.7996 17.6766 44.0418 17.9006C44.284 18.1245 44.2996 18.4995 44.0756 18.7417L39.8022 23.3693C39.5782 23.6115 39.2032 23.6271 38.9611 23.4032C38.7189 23.1792 38.7032 22.8042 38.9272 22.562L43.2006 17.9344ZM45.0496 19.6453C45.2736 19.4032 45.6486 19.3875 45.8907 19.6115C46.1329 19.8355 46.1486 20.2105 45.9246 20.4526L41.6538 25.0776C41.4298 25.3198 41.0548 25.3355 40.8126 25.1115C40.5704 24.8875 40.5548 24.5125 40.7788 24.2703L45.0496 19.6453ZM46.9663 21.424C47.1902 21.1818 47.5652 21.1662 47.8074 21.3901C48.0496 21.6141 48.0652 21.9917 47.8413 22.2313L42.9663 27.5099C42.948 27.5282 42.9298 27.5438 42.9116 27.562C41.8022 28.6297 40.7423 29.2469 39.7293 29.4214C38.6303 29.6115 37.6225 29.299 36.698 28.4917C36.4506 28.2756 36.4272 27.898 36.6407 27.6532C36.8569 27.4058 37.2345 27.3823 37.4793 27.5959C38.1173 28.1532 38.7996 28.3719 39.521 28.2443C40.297 28.1115 41.1512 27.5985 42.0835 26.7L42.0887 26.6948L46.9611 21.4214L46.9663 21.424Z" fill="#FFD3C6"/>
<circle cx="31.5" cy="31.5" r="27.5" stroke="#FFD3C6" stroke-width="8"/>
</svg>
