<svg width="71" height="71" viewBox="0 0 71 71" fill="none" xmlns="http://www.w3.org/2000/svg">
<path fill-rule="evenodd" clip-rule="evenodd" d="M28.4 71C12.7151 71 0 58.2849 0 42.6C0 26.9151 12.7151 14.2 28.4 14.2C44.0849 14.2 56.8 26.9151 56.8 42.6C56.8 58.2849 44.0849 71 28.4 71ZM28.4 63.9C40.1637 63.9 49.7 54.3637 49.7 42.6C49.7 30.8363 40.1637 21.3 28.4 21.3C16.6363 21.3 7.1 30.8363 7.1 42.6C7.1 54.3637 16.6363 63.9 28.4 63.9ZM39.05 46.15C39.05 52.0318 34.2818 56.8 28.4 56.8C22.5182 56.8 17.75 52.0318 17.75 46.15H39.05ZM21.3 39.05C23.2606 39.05 24.85 37.4606 24.85 35.5C24.85 33.5394 23.2606 31.95 21.3 31.95C19.3394 31.95 17.75 33.5394 17.75 35.5C17.75 37.4606 19.3394 39.05 21.3 39.05ZM35.5 39.05C33.5394 39.05 31.95 37.4606 31.95 35.5C31.95 33.5394 33.5394 31.95 35.5 31.95C37.4606 31.95 39.05 33.5394 39.05 35.5C39.05 37.4606 37.4606 39.05 35.5 39.05ZM59.0187 21.3C56.0831 20.6621 47.0375 15.6555 47.0375 6.65625C47.0375 2.9801 50.0176 0 53.6937 0C55.8711 0 57.8043 1.04549 59.0187 2.66185C60.2332 1.04549 62.1664 0 64.3437 0C68.0199 0 71 2.9801 71 6.65625C71 15.6555 61.9544 20.6621 59.0187 21.3Z" fill="#FFD3C6"/>
</svg>
