<svg width="63" height="63" viewBox="0 0 63 63" fill="none" xmlns="http://www.w3.org/2000/svg">
<circle cx="31.5" cy="31.5" r="27.5" stroke="#FFD3C6" stroke-width="8"/>
<path d="M35.5743 24.4648C35.4324 24.1831 35.1486 24.0423 35.0068 24.0423C33.7297 24.3239 32.5946 24.0423 32.1689 23.338C31.7432 22.6338 32.027 21.507 33.0203 20.5211C33.1622 20.3803 33.1622 19.9577 33.0203 19.8169C31.7432 18.5493 30.1824 17.5634 28.3378 17.1408C28.0541 17 27.7703 17.2817 27.6284 17.5634C27.2027 18.6901 26.3514 19.5352 25.5 19.5352C24.6486 19.5352 23.7973 18.6901 23.3716 17.4225C23.2297 17.1408 22.9459 17 22.6622 17C20.8176 17.4225 19.2568 18.4085 17.9797 19.6761C17.8378 19.8169 17.8378 20.2394 17.9797 20.3803C18.8311 21.3662 19.2568 22.493 18.8311 23.1972C18.4054 23.9014 17.2703 24.1831 15.9932 23.9014C15.7095 23.9014 15.4257 24.0423 15.4257 24.3239C15.1419 25.169 15 26.1549 15 27C15 27.8451 15.1419 28.831 15.4257 29.6761C15.5676 29.9577 15.8514 30.0986 15.9932 30.0986C17.2703 29.8169 18.4054 30.0986 18.8311 30.8028C19.2568 31.507 18.973 32.6338 17.9797 33.6197C17.8378 33.7606 17.8378 34.1831 17.9797 34.3239C19.2568 35.5915 20.8176 36.5775 22.6622 37H22.8041C23.0878 37 23.2297 36.8592 23.3716 36.5775C23.7973 35.3099 24.5068 34.4648 25.5 34.4648C26.4932 34.4648 27.2027 35.3099 27.6284 36.5775C27.7703 36.8592 28.0541 37 28.3378 37C30.1824 36.5775 31.7432 35.5915 33.0203 34.3239C33.1622 34.1831 33.1622 33.7606 33.0203 33.6197C32.1689 32.6338 31.7432 31.507 32.1689 30.8028C32.5946 30.0986 33.7297 29.8169 35.0068 30.0986C35.2905 30.0986 35.5743 29.9577 35.5743 29.6761C35.8581 28.831 36 27.8451 36 27C36 26.1549 35.8581 25.3099 35.5743 24.4648ZM26.777 27.7042C26.6351 27.8451 26.6351 27.9859 26.4932 28.1268C26.2095 28.4085 25.9257 28.5493 25.5 28.5493C25.3581 28.5493 25.0743 28.5493 24.9324 28.4085C24.7905 28.2676 24.6486 28.2676 24.5068 28.1268C24.3649 27.9859 24.223 27.8451 24.223 27.7042C24.223 27.5634 24.0811 27.2817 24.0811 27.1408C24.0811 27 24.0811 26.7183 24.223 26.5775C24.3649 26.4366 24.3649 26.2958 24.5068 26.1549C25.0743 25.5915 25.9257 25.5915 26.4932 26.1549C26.6351 26.2958 26.777 26.4366 26.777 26.5775C26.777 26.7183 26.9189 27 26.9189 27.1408C26.9189 27.2817 26.9189 27.5634 26.777 27.7042Z" fill="#FFD3C6"/>
<path d="M48.8385 33.7286L44.7816 25.65C44.6417 18.1286 38.3466 12 30.7924 12C27.435 12 24.3574 13.1143 21.8394 15.2036C22.9585 14.925 24.0776 14.7857 25.1968 14.7857C32.1913 14.7857 37.787 20.3571 37.787 27.3214C37.787 34.2857 32.1913 39.8571 25.1968 39.8571C23.6579 39.8571 22.259 39.5786 21 39.1607V46.8214C21 47.5179 21.4197 48.075 22.1191 48.2143L36.1083 51C36.2482 51 36.2482 51 36.3881 51C36.6679 51 37.0876 50.8607 37.2274 50.7214C37.5072 50.4429 37.787 50.025 37.787 49.6071V44.0357H40.5849C42.963 44.0357 44.7816 42.225 44.7816 39.8571V35.6786H47.5794C47.9991 35.6786 48.5587 35.4 48.8385 34.9821C49.1183 34.5643 48.9784 34.1464 48.8385 33.7286Z" fill="#FFD3C6"/>
</svg>
