<svg width="60" height="60" viewBox="0 0 60 60" fill="none" xmlns="http://www.w3.org/2000/svg">
<path d="M29.9585 60C13.3887 60 0 46.6113 0 30.0415C0 13.4717 13.3887 0 29.9585 0C46.5283 0 60 13.4717 60 30.0415C60 46.6113 46.5283 60 29.9585 60ZM29.9585 7.44946C17.574 7.44946 7.53247 17.6597 7.53247 30.0442C7.53247 42.4287 17.574 52.4702 29.9585 52.4702C42.343 52.4702 52.5532 42.4287 52.5532 30.0442C52.5532 17.6597 42.343 7.44946 29.9585 7.44946ZM38.0747 41.5049L27.4468 33.7234C26.6943 33.137 25.9392 31.8811 25.9392 30.877V13.8894C25.9392 12.9683 26.7773 12.2158 27.7815 12.2158H31.2974C32.2185 12.2158 32.9709 12.9683 32.9709 13.8894V27.2781C32.9709 28.2822 33.7234 29.5381 34.4785 30.1245L42.26 35.7317C43.0124 36.3181 43.1811 37.4883 42.5947 38.2434L40.5034 41.0898C39.917 41.8423 38.8298 42.011 38.0774 41.5076L38.0747 41.5049Z" fill="#FFD3C6"/>
</svg>
