<svg width="36" height="41" viewBox="0 0 36 41" fill="none" xmlns="http://www.w3.org/2000/svg">
<rect x="0.5" y="2.5" width="35" height="35" rx="1.5" fill="url(#paint0_linear_40_2500)" stroke="white"/>
<path d="M12.9886 8.27273V33H9.99432V8.27273H12.9886ZM26.6713 14.4545V16.8693H17.0605V14.4545H26.6713ZM19.8617 10.0114H22.7111V27.6875C22.7111 28.4924 22.8278 29.0961 23.0613 29.4986C23.3027 29.893 23.6086 30.1586 23.9789 30.2955C24.3572 30.4242 24.7556 30.4886 25.1742 30.4886C25.4881 30.4886 25.7457 30.4725 25.9469 30.4403C26.1481 30.4001 26.3091 30.3679 26.4299 30.3438L27.0094 32.9034C26.8162 32.9759 26.5466 33.0483 26.2005 33.1207C25.8543 33.2012 25.4157 33.2415 24.8844 33.2415C24.0795 33.2415 23.2907 33.0684 22.5179 32.7223C21.7533 32.3762 21.1174 31.849 20.6103 31.1406C20.1112 30.4323 19.8617 29.5388 19.8617 28.4602V10.0114Z" fill="white"/>
<defs>
<linearGradient id="paint0_linear_40_2500" x1="22.2938" y1="11.791" x2="-12.3382" y2="1.88939" gradientUnits="userSpaceOnUse">
<stop stop-color="#F9623C"/>
<stop offset="1" stop-color="#FA8441" stop-opacity="0.67"/>
</linearGradient>
</defs>
</svg>
